<svg width="25" height="25" viewBox="0 0 25 25" fill="none" xmlns="http://www.w3.org/2000/svg">
<path d="M16.8049 7.42188C16.0808 3.06152 14.3728 0 12.3852 0C10.3976 0 8.68961 3.06152 7.96547 7.42188H16.8049ZM7.59092 12.1094C7.59092 13.1934 7.65085 14.2334 7.75572 15.2344H17.0097C17.1145 14.2334 17.1745 13.1934 17.1745 12.1094C17.1745 11.0254 17.1145 9.98535 17.0097 8.98438H7.75572C7.65085 9.98535 7.59092 11.0254 7.59092 12.1094ZM23.8065 7.42188C22.3782 4.10645 19.4867 1.54297 15.916 0.507812C17.1345 2.1582 17.9735 4.64355 18.413 7.42188H23.8065ZM8.84942 0.507812C5.28368 1.54297 2.38715 4.10645 0.963847 7.42188H6.3574C6.79188 4.64355 7.63087 2.1582 8.84942 0.507812ZM24.3409 8.98438H18.6127C18.7176 10.0098 18.7775 11.0596 18.7775 12.1094C18.7775 13.1592 18.7176 14.209 18.6127 15.2344H24.3359C24.6106 14.2334 24.7654 13.1934 24.7654 12.1094C24.7654 11.0254 24.6106 9.98535 24.3409 8.98438ZM5.99283 12.1094C5.99283 11.0596 6.05276 10.0098 6.15764 8.98438H0.429486C0.159809 9.98535 0 11.0254 0 12.1094C0 13.1934 0.159809 14.2334 0.429486 15.2344H6.15264C6.05276 14.209 5.99283 13.1592 5.99283 12.1094ZM7.96547 16.7969C8.68961 21.1572 10.3976 24.2188 12.3852 24.2188C14.3728 24.2188 16.0808 21.1572 16.8049 16.7969H7.96547ZM15.921 23.7109C19.4867 22.6758 22.3832 20.1123 23.8115 16.7969H18.418C17.9785 19.5752 17.1395 22.0605 15.921 23.7109ZM0.963847 16.7969C2.39214 20.1123 5.28368 22.6758 8.85441 23.7109C7.63587 22.0605 6.79687 19.5752 6.3574 16.7969H0.963847Z" fill="white"/>
</svg>
