<svg width="35" height="35" viewBox="0 0 35 35" fill="none" xmlns="http://www.w3.org/2000/svg">
<circle cx="17.5" cy="17.5" r="17.5" fill="white"/>
<circle cx="17.5" cy="17.5" r="15.3125" fill="#202426"/>
<path d="M18.0022 12.7547C15.1645 12.7547 12.8756 14.9889 12.8756 17.7588C12.8756 20.5286 15.1645 22.7628 18.0022 22.7628C20.8399 22.7628 23.1288 20.5286 23.1288 17.7588C23.1288 14.9889 20.8399 12.7547 18.0022 12.7547ZM18.0022 21.012C16.1684 21.012 14.6693 19.5531 14.6693 17.7588C14.6693 15.9644 16.164 14.5055 18.0022 14.5055C19.8405 14.5055 21.3352 15.9644 21.3352 17.7588C21.3352 19.5531 19.836 21.012 18.0022 21.012ZM24.5343 12.55C24.5343 13.1989 23.9989 13.7172 23.3385 13.7172C22.6737 13.7172 22.1428 13.1946 22.1428 12.55C22.1428 11.9055 22.6782 11.3828 23.3385 11.3828C23.9989 11.3828 24.5343 11.9055 24.5343 12.55ZM27.9297 13.7346C27.8539 12.1711 27.488 10.7862 26.3146 9.64515C25.1456 8.50411 23.7267 8.14699 22.1249 8.06859C20.4741 7.97714 15.5259 7.97714 13.8751 8.06859C12.2777 8.14263 10.8589 8.49975 9.68544 9.6408C8.51199 10.7818 8.15059 12.1668 8.07027 13.7303C7.97658 15.3417 7.97658 20.1715 8.07027 21.7829C8.14612 23.3464 8.51199 24.7313 9.68544 25.8724C10.8589 27.0134 12.2733 27.3705 13.8751 27.4489C15.5259 27.5404 20.4741 27.5404 22.1249 27.4489C23.7267 27.3749 25.1456 27.0178 26.3146 25.8724C27.4835 24.7313 27.8494 23.3464 27.9297 21.7829C28.0234 20.1715 28.0234 15.346 27.9297 13.7346ZM25.797 23.5119C25.449 24.3655 24.7752 25.0231 23.8963 25.3672C22.58 25.8767 19.4568 25.7591 18.0022 25.7591C16.5477 25.7591 13.42 25.8724 12.1082 25.3672C11.2337 25.0275 10.56 24.3698 10.2075 23.5119C9.68544 22.2271 9.80591 19.1785 9.80591 17.7588C9.80591 16.339 9.68991 13.286 10.2075 12.0056C10.5555 11.152 11.2292 10.4944 12.1082 10.1503C13.4244 9.6408 16.5477 9.75838 18.0022 9.75838C19.4568 9.75838 22.5845 9.64515 23.8963 10.1503C24.7708 10.49 25.4445 11.1477 25.797 12.0056C26.319 13.2904 26.1985 16.339 26.1985 17.7588C26.1985 19.1785 26.319 22.2315 25.797 23.5119Z" fill="white"/>
</svg>
