<svg width="35" height="35" viewBox="0 0 35 35" fill="none" xmlns="http://www.w3.org/2000/svg">
<circle cx="17.5" cy="17.5" r="17.5" fill="white"/>
<circle cx="17.5" cy="17.5" r="15.3125" fill="#202426"/>
<path d="M26.9348 12.801C26.9497 13.0117 26.9497 13.2224 26.9497 13.4331C26.9497 19.8595 22.1379 27.2643 13.3435 27.2643C10.6341 27.2643 8.11718 26.4666 6 25.082C6.38495 25.1271 6.75505 25.1422 7.15482 25.1422C9.3904 25.1422 11.4484 24.3747 13.0918 23.0653C10.9894 23.0201 9.22757 21.6205 8.62053 19.694C8.91667 19.7391 9.21276 19.7693 9.5237 19.7693C9.95304 19.7693 10.3824 19.709 10.7822 19.6037C8.59096 19.1522 6.94751 17.1957 6.94751 14.8328V14.7726C7.58412 15.1338 8.32445 15.3596 9.10908 15.3896C7.821 14.5167 6.97713 13.0268 6.97713 11.3411C6.97713 10.4381 7.21397 9.61036 7.62855 8.88794C9.98262 11.8378 13.5211 13.7642 17.4889 13.9749C17.4149 13.6137 17.3705 13.2375 17.3705 12.8612C17.3705 10.1823 19.5025 8 22.1526 8C23.5295 8 24.7732 8.58696 25.6467 9.53512C26.7275 9.32443 27.7639 8.91805 28.6818 8.36121C28.3265 9.49 27.5714 10.4382 26.5795 11.0401C27.5418 10.9348 28.4746 10.6639 29.3333 10.2876C28.6819 11.2508 27.8676 12.1087 26.9348 12.801Z" fill="white"/>
</svg>
