<svg width="35" height="35" viewBox="0 0 35 35" fill="none" xmlns="http://www.w3.org/2000/svg">
<circle cx="17.5" cy="17.5" r="17.5" fill="white"/>
<circle cx="17.5" cy="17.5" r="15.3125" fill="#202426"/>
<path d="M27.6614 12.4742C27.4069 11.5003 26.6572 10.7333 25.7054 10.473C23.9801 10 17.0618 10 17.0618 10C17.0618 10 10.1436 10 8.41826 10.473C7.46641 10.7333 6.71674 11.5003 6.4623 12.4742C6 14.2394 6 17.9223 6 17.9223C6 17.9223 6 21.6053 6.4623 23.3705C6.71674 24.3444 7.46641 25.0795 8.41826 25.3398C10.1436 25.8127 17.0618 25.8127 17.0618 25.8127C17.0618 25.8127 23.9801 25.8127 25.7054 25.3398C26.6572 25.0795 27.4069 24.3444 27.6614 23.3705C28.1237 21.6053 28.1237 17.9223 28.1237 17.9223C28.1237 17.9223 28.1237 14.2394 27.6614 12.4742ZM14.7992 21.2662V14.5785L20.5815 17.9224L14.7992 21.2662Z" fill="white"/>
</svg>
